<mxfile host="app.diagrams.net" agent="Mozilla/5.0 (X11; Ubuntu; Linux x86_64; rv:134.0) Gecko/20100101 Firefox/134.0" version="26.0.6">
  <diagram name="Seite-1" id="qXua3DigNGGVZhSXKcK-">
    <mxGraphModel dx="1382" dy="1966" grid="1" gridSize="10" guides="1" tooltips="1" connect="1" arrows="1" fold="1" page="1" pageScale="1" pageWidth="827" pageHeight="1169" math="0" shadow="0">
      <root>
        <mxCell id="0" />
        <mxCell id="1" parent="0" />
        <mxCell id="hyoYKVt0xdpT8qegcMd1-39" style="edgeStyle=none;rounded=0;orthogonalLoop=1;jettySize=auto;html=1;entryX=0;entryY=0.5;entryDx=0;entryDy=0;" edge="1" parent="1" source="hyoYKVt0xdpT8qegcMd1-34" target="hyoYKVt0xdpT8qegcMd1-32">
          <mxGeometry relative="1" as="geometry" />
        </mxCell>
        <mxCell id="hyoYKVt0xdpT8qegcMd1-34" value="" style="rounded=0;whiteSpace=wrap;html=1;" vertex="1" parent="1">
          <mxGeometry x="90" y="190" width="390" height="330" as="geometry" />
        </mxCell>
        <mxCell id="hyoYKVt0xdpT8qegcMd1-44" style="edgeStyle=none;rounded=0;orthogonalLoop=1;jettySize=auto;html=1;entryX=0.5;entryY=0;entryDx=0;entryDy=0;shape=link;" edge="1" parent="1" source="hyoYKVt0xdpT8qegcMd1-3" target="hyoYKVt0xdpT8qegcMd1-16">
          <mxGeometry relative="1" as="geometry" />
        </mxCell>
        <mxCell id="hyoYKVt0xdpT8qegcMd1-3" value="&lt;br&gt;&lt;div&gt;Datensatz&lt;/div&gt;" style="strokeWidth=2;html=1;shape=mxgraph.flowchart.database;whiteSpace=wrap;fillColor=#d5e8d4;strokeColor=#82b366;" vertex="1" parent="1">
          <mxGeometry x="369" y="-50" width="130" height="80" as="geometry" />
        </mxCell>
        <mxCell id="hyoYKVt0xdpT8qegcMd1-31" style="edgeStyle=none;rounded=0;orthogonalLoop=1;jettySize=auto;html=1;entryX=0;entryY=0.5;entryDx=0;entryDy=0;endArrow=classic;endFill=1;dashed=1;" edge="1" parent="1" source="hyoYKVt0xdpT8qegcMd1-4" target="hyoYKVt0xdpT8qegcMd1-10">
          <mxGeometry relative="1" as="geometry">
            <Array as="points">
              <mxPoint x="100" y="270" />
              <mxPoint x="100" y="410" />
            </Array>
          </mxGeometry>
        </mxCell>
        <mxCell id="hyoYKVt0xdpT8qegcMd1-4" value="" style="strokeWidth=2;html=1;shape=mxgraph.flowchart.database;whiteSpace=wrap;fillColor=#ffe6cc;strokeColor=#d79b00;" vertex="1" parent="1">
          <mxGeometry x="129" y="230" width="100" height="80" as="geometry" />
        </mxCell>
        <mxCell id="hyoYKVt0xdpT8qegcMd1-30" style="edgeStyle=none;rounded=0;orthogonalLoop=1;jettySize=auto;html=1;entryX=1;entryY=0.5;entryDx=0;entryDy=0;endArrow=classic;endFill=1;dashed=1;" edge="1" parent="1" source="hyoYKVt0xdpT8qegcMd1-5" target="hyoYKVt0xdpT8qegcMd1-23">
          <mxGeometry relative="1" as="geometry">
            <Array as="points">
              <mxPoint x="470" y="280" />
              <mxPoint x="470" y="410" />
            </Array>
          </mxGeometry>
        </mxCell>
        <mxCell id="hyoYKVt0xdpT8qegcMd1-5" value="" style="strokeWidth=2;html=1;shape=mxgraph.flowchart.database;whiteSpace=wrap;fillColor=#fff2cc;strokeColor=#d6b656;" vertex="1" parent="1">
          <mxGeometry x="345" y="250" width="80" height="60" as="geometry" />
        </mxCell>
        <mxCell id="hyoYKVt0xdpT8qegcMd1-6" value="&lt;div&gt;Test-&lt;/div&gt;&lt;div&gt;daten&lt;br&gt;&lt;/div&gt;" style="text;html=1;align=center;verticalAlign=middle;resizable=0;points=[];autosize=1;strokeColor=none;fillColor=none;" vertex="1" parent="1">
          <mxGeometry x="360" y="270" width="50" height="40" as="geometry" />
        </mxCell>
        <mxCell id="hyoYKVt0xdpT8qegcMd1-7" value="Trainings-&lt;div&gt;daten&lt;br&gt;&lt;/div&gt;" style="text;html=1;align=center;verticalAlign=middle;resizable=0;points=[];autosize=1;strokeColor=none;fillColor=none;" vertex="1" parent="1">
          <mxGeometry x="139" y="260" width="80" height="40" as="geometry" />
        </mxCell>
        <mxCell id="hyoYKVt0xdpT8qegcMd1-28" style="edgeStyle=none;rounded=0;orthogonalLoop=1;jettySize=auto;html=1;entryX=0;entryY=0.5;entryDx=0;entryDy=0;" edge="1" parent="1" source="hyoYKVt0xdpT8qegcMd1-10" target="hyoYKVt0xdpT8qegcMd1-24">
          <mxGeometry relative="1" as="geometry">
            <Array as="points">
              <mxPoint x="180" y="350" />
            </Array>
          </mxGeometry>
        </mxCell>
        <mxCell id="hyoYKVt0xdpT8qegcMd1-10" value="Backpropagation" style="ellipse;whiteSpace=wrap;html=1;" vertex="1" parent="1">
          <mxGeometry x="120" y="380" width="100" height="60" as="geometry" />
        </mxCell>
        <mxCell id="hyoYKVt0xdpT8qegcMd1-53" style="edgeStyle=none;rounded=0;orthogonalLoop=1;jettySize=auto;html=1;dashed=1;" edge="1" parent="1" source="hyoYKVt0xdpT8qegcMd1-11" target="hyoYKVt0xdpT8qegcMd1-32">
          <mxGeometry relative="1" as="geometry" />
        </mxCell>
        <mxCell id="hyoYKVt0xdpT8qegcMd1-11" value="" style="strokeWidth=2;html=1;shape=mxgraph.flowchart.database;whiteSpace=wrap;fillColor=#f8cecc;strokeColor=#b85450;" vertex="1" parent="1">
          <mxGeometry x="525" y="140" width="80" height="60" as="geometry" />
        </mxCell>
        <mxCell id="hyoYKVt0xdpT8qegcMd1-12" value="&lt;div&gt;Evaluations-&lt;/div&gt;&lt;div&gt;daten&lt;br&gt;&lt;/div&gt;" style="text;html=1;align=center;verticalAlign=middle;resizable=0;points=[];autosize=1;strokeColor=none;fillColor=none;" vertex="1" parent="1">
          <mxGeometry x="520" y="160" width="90" height="40" as="geometry" />
        </mxCell>
        <mxCell id="hyoYKVt0xdpT8qegcMd1-22" style="edgeStyle=none;rounded=0;orthogonalLoop=1;jettySize=auto;html=1;" edge="1" parent="1" source="hyoYKVt0xdpT8qegcMd1-16" target="hyoYKVt0xdpT8qegcMd1-11">
          <mxGeometry relative="1" as="geometry" />
        </mxCell>
        <mxCell id="hyoYKVt0xdpT8qegcMd1-47" value="30%" style="edgeLabel;html=1;align=center;verticalAlign=middle;resizable=0;points=[];" vertex="1" connectable="0" parent="hyoYKVt0xdpT8qegcMd1-22">
          <mxGeometry x="-0.3427" y="2" relative="1" as="geometry">
            <mxPoint as="offset" />
          </mxGeometry>
        </mxCell>
        <mxCell id="hyoYKVt0xdpT8qegcMd1-46" style="edgeStyle=none;rounded=0;orthogonalLoop=1;jettySize=auto;html=1;" edge="1" parent="1" source="hyoYKVt0xdpT8qegcMd1-16" target="hyoYKVt0xdpT8qegcMd1-45">
          <mxGeometry relative="1" as="geometry" />
        </mxCell>
        <mxCell id="hyoYKVt0xdpT8qegcMd1-48" value="70%" style="edgeLabel;html=1;align=center;verticalAlign=middle;resizable=0;points=[];" vertex="1" connectable="0" parent="hyoYKVt0xdpT8qegcMd1-46">
          <mxGeometry x="0.0184" y="-1" relative="1" as="geometry">
            <mxPoint as="offset" />
          </mxGeometry>
        </mxCell>
        <mxCell id="hyoYKVt0xdpT8qegcMd1-16" value="Split" style="ellipse;whiteSpace=wrap;html=1;aspect=fixed;" vertex="1" parent="1">
          <mxGeometry x="414" y="50" width="40" height="40" as="geometry" />
        </mxCell>
        <mxCell id="hyoYKVt0xdpT8qegcMd1-18" value="Split" style="ellipse;whiteSpace=wrap;html=1;aspect=fixed;" vertex="1" parent="1">
          <mxGeometry x="275" y="200" width="30" height="30" as="geometry" />
        </mxCell>
        <mxCell id="hyoYKVt0xdpT8qegcMd1-19" style="edgeStyle=orthogonalEdgeStyle;rounded=0;orthogonalLoop=1;jettySize=auto;html=1;entryX=0.5;entryY=0;entryDx=0;entryDy=0;entryPerimeter=0;" edge="1" parent="1" source="hyoYKVt0xdpT8qegcMd1-18" target="hyoYKVt0xdpT8qegcMd1-4">
          <mxGeometry relative="1" as="geometry">
            <Array as="points">
              <mxPoint x="179" y="215" />
            </Array>
          </mxGeometry>
        </mxCell>
        <mxCell id="hyoYKVt0xdpT8qegcMd1-50" value="70%" style="edgeLabel;html=1;align=center;verticalAlign=middle;resizable=0;points=[];" vertex="1" connectable="0" parent="hyoYKVt0xdpT8qegcMd1-19">
          <mxGeometry x="-0.2543" y="2" relative="1" as="geometry">
            <mxPoint y="-3" as="offset" />
          </mxGeometry>
        </mxCell>
        <mxCell id="hyoYKVt0xdpT8qegcMd1-20" style="edgeStyle=orthogonalEdgeStyle;rounded=0;orthogonalLoop=1;jettySize=auto;html=1;entryX=0.5;entryY=0;entryDx=0;entryDy=0;entryPerimeter=0;" edge="1" parent="1" source="hyoYKVt0xdpT8qegcMd1-18" target="hyoYKVt0xdpT8qegcMd1-5">
          <mxGeometry relative="1" as="geometry" />
        </mxCell>
        <mxCell id="hyoYKVt0xdpT8qegcMd1-49" value="30%" style="edgeLabel;html=1;align=center;verticalAlign=middle;resizable=0;points=[];" vertex="1" connectable="0" parent="hyoYKVt0xdpT8qegcMd1-20">
          <mxGeometry x="-0.519" y="1" relative="1" as="geometry">
            <mxPoint as="offset" />
          </mxGeometry>
        </mxCell>
        <mxCell id="hyoYKVt0xdpT8qegcMd1-26" style="edgeStyle=none;rounded=0;orthogonalLoop=1;jettySize=auto;html=1;" edge="1" parent="1" source="hyoYKVt0xdpT8qegcMd1-23" target="hyoYKVt0xdpT8qegcMd1-25">
          <mxGeometry relative="1" as="geometry">
            <Array as="points">
              <mxPoint x="360" y="480" />
            </Array>
          </mxGeometry>
        </mxCell>
        <mxCell id="hyoYKVt0xdpT8qegcMd1-23" value="&lt;div&gt;Forward-&lt;/div&gt;&lt;div&gt;propagation&lt;br&gt;&lt;/div&gt;" style="ellipse;whiteSpace=wrap;html=1;" vertex="1" parent="1">
          <mxGeometry x="335" y="380" width="100" height="60" as="geometry" />
        </mxCell>
        <mxCell id="hyoYKVt0xdpT8qegcMd1-29" style="edgeStyle=none;rounded=0;orthogonalLoop=1;jettySize=auto;html=1;entryX=0.5;entryY=0;entryDx=0;entryDy=0;" edge="1" parent="1" source="hyoYKVt0xdpT8qegcMd1-24" target="hyoYKVt0xdpT8qegcMd1-23">
          <mxGeometry relative="1" as="geometry">
            <Array as="points">
              <mxPoint x="360" y="350" />
            </Array>
          </mxGeometry>
        </mxCell>
        <mxCell id="hyoYKVt0xdpT8qegcMd1-24" value="&lt;div&gt;Gewichte&lt;/div&gt;&lt;div&gt;anpassen&lt;br&gt;&lt;/div&gt;" style="ellipse;whiteSpace=wrap;html=1;" vertex="1" parent="1">
          <mxGeometry x="236.5" y="320" width="80" height="50" as="geometry" />
        </mxCell>
        <mxCell id="hyoYKVt0xdpT8qegcMd1-27" style="edgeStyle=none;rounded=0;orthogonalLoop=1;jettySize=auto;html=1;entryX=0.5;entryY=1;entryDx=0;entryDy=0;" edge="1" parent="1" source="hyoYKVt0xdpT8qegcMd1-25" target="hyoYKVt0xdpT8qegcMd1-10">
          <mxGeometry relative="1" as="geometry">
            <Array as="points">
              <mxPoint x="180" y="480" />
            </Array>
          </mxGeometry>
        </mxCell>
        <mxCell id="hyoYKVt0xdpT8qegcMd1-25" value="Loss berechnen" style="ellipse;whiteSpace=wrap;html=1;" vertex="1" parent="1">
          <mxGeometry x="229" y="450" width="95" height="60" as="geometry" />
        </mxCell>
        <mxCell id="hyoYKVt0xdpT8qegcMd1-40" style="edgeStyle=none;rounded=0;orthogonalLoop=1;jettySize=auto;html=1;entryX=0;entryY=0.5;entryDx=0;entryDy=0;" edge="1" parent="1" source="hyoYKVt0xdpT8qegcMd1-32" target="hyoYKVt0xdpT8qegcMd1-36">
          <mxGeometry relative="1" as="geometry" />
        </mxCell>
        <mxCell id="hyoYKVt0xdpT8qegcMd1-32" value="Metriken berechnen" style="ellipse;whiteSpace=wrap;html=1;" vertex="1" parent="1">
          <mxGeometry x="520" y="325" width="95" height="60" as="geometry" />
        </mxCell>
        <mxCell id="hyoYKVt0xdpT8qegcMd1-35" value="Batch-Verarbeitung" style="rounded=0;whiteSpace=wrap;html=1;" vertex="1" parent="1">
          <mxGeometry x="90" y="160" width="120" height="30" as="geometry" />
        </mxCell>
        <mxCell id="hyoYKVt0xdpT8qegcMd1-36" value="Fertiges Modell" style="rounded=0;whiteSpace=wrap;html=1;fillColor=#e1d5e7;strokeColor=#9673a6;" vertex="1" parent="1">
          <mxGeometry x="650" y="325" width="120" height="60" as="geometry" />
        </mxCell>
        <mxCell id="hyoYKVt0xdpT8qegcMd1-42" style="edgeStyle=none;rounded=0;orthogonalLoop=1;jettySize=auto;html=1;entryX=0.5;entryY=0;entryDx=0;entryDy=0;dashed=1;" edge="1" parent="1" source="hyoYKVt0xdpT8qegcMd1-45" target="hyoYKVt0xdpT8qegcMd1-18">
          <mxGeometry relative="1" as="geometry">
            <mxPoint x="300.0000000000002" y="100" as="sourcePoint" />
          </mxGeometry>
        </mxCell>
        <mxCell id="hyoYKVt0xdpT8qegcMd1-45" value="&lt;div&gt;Daten in Batches&lt;/div&gt;&lt;div&gt;unterteilen&lt;br&gt;&lt;/div&gt;" style="ellipse;whiteSpace=wrap;html=1;" vertex="1" parent="1">
          <mxGeometry x="235" y="110" width="110" height="60" as="geometry" />
        </mxCell>
      </root>
    </mxGraphModel>
  </diagram>
</mxfile>
